<svg xmlns="http://www.w3.org/2000/svg" xmlns:xlink="http://www.w3.org/1999/xlink" width="80" zoomAndPan="magnify" viewBox="0 0 60 60" height="80" preserveAspectRatio="xMidYMid meet" version="1.0"><defs><clipPath id="bd1fc9b3c1"><path d="M 2.613281 5.285156 L 30 5.285156 L 30 41 L 2.613281 41 Z M 2.613281 5.285156 " clip-rule="nonzero"/></clipPath><clipPath id="976278b49b"><path d="M 25 22 L 56.613281 22 L 56.613281 54.035156 L 25 54.035156 Z M 25 22 " clip-rule="nonzero"/></clipPath></defs><g clip-path="url(#bd1fc9b3c1)"><path fill="#000000" d="M 4.960938 37.933594 C 4.621094 37.59375 4.453125 37.085938 4.507812 36.574219 C 4.734375 33.851562 5.359375 31.1875 6.320312 28.636719 C 7.570312 25.351562 10.460938 22.96875 13.859375 22.234375 C 15.050781 22.855469 16.464844 23.195312 17.882812 23.195312 C 19.355469 23.195312 20.714844 22.855469 21.90625 22.234375 C 24.398438 22.742188 26.609375 24.160156 28.082031 26.199219 L 29.328125 24.953125 C 27.914062 23.140625 25.988281 21.722656 23.777344 20.929688 C 25.648438 19.285156 26.78125 16.902344 26.78125 14.238281 C 26.894531 9.308594 22.871094 5.285156 17.9375 5.285156 C 13.007812 5.285156 8.984375 9.308594 8.984375 14.238281 C 8.984375 16.902344 10.175781 19.285156 11.988281 20.929688 C 8.703125 22.121094 5.980469 24.671875 4.734375 28.015625 C 3.714844 30.734375 3.035156 33.570312 2.75 36.460938 C 2.636719 37.425781 2.980469 38.445312 3.660156 39.125 C 4.339844 39.863281 5.246094 40.257812 6.207031 40.257812 L 23.324219 40.257812 L 23.324219 38.5 L 6.207031 38.5 C 5.753906 38.5 5.300781 38.332031 4.960938 37.933594 Z M 10.742188 14.238281 C 10.742188 10.273438 13.972656 7.039062 17.9375 7.039062 C 21.90625 7.039062 25.136719 10.273438 25.136719 14.238281 C 25.136719 18.207031 21.90625 21.4375 17.9375 21.4375 C 13.972656 21.4375 10.742188 18.207031 10.742188 14.238281 Z M 10.742188 14.238281 " fill-opacity="1" fill-rule="nonzero"/></g><path fill="#000000" d="M 40.835938 31.699219 C 37.207031 31.699219 34.261719 34.648438 34.261719 38.273438 C 34.261719 41.902344 37.207031 44.851562 40.835938 44.851562 C 44.460938 44.851562 47.40625 41.902344 47.40625 38.273438 C 47.464844 34.648438 44.515625 31.699219 40.835938 31.699219 Z M 40.835938 43.148438 C 38.171875 43.148438 35.960938 40.996094 35.960938 38.273438 C 35.960938 35.554688 38.113281 33.398438 40.835938 33.398438 C 43.496094 33.398438 45.652344 35.554688 45.652344 38.273438 C 45.652344 40.996094 43.496094 43.148438 40.835938 43.148438 Z M 40.835938 43.148438 " fill-opacity="1" fill-rule="nonzero"/><g clip-path="url(#976278b49b)"><path fill="#000000" d="M 55.792969 34.648438 L 52.792969 34.308594 C 52.621094 33.738281 52.394531 33.171875 52.109375 32.605469 L 53.980469 30.28125 C 54.265625 29.941406 54.207031 29.433594 53.925781 29.089844 L 50.015625 25.179688 C 49.675781 24.839844 49.222656 24.839844 48.824219 25.125 L 46.5 26.996094 C 45.992188 26.710938 45.425781 26.484375 44.800781 26.3125 L 44.460938 23.308594 C 44.402344 22.855469 44.0625 22.515625 43.609375 22.515625 L 38.058594 22.515625 C 37.605469 22.515625 37.207031 22.855469 37.207031 23.308594 L 36.867188 26.3125 C 36.300781 26.484375 35.734375 26.710938 35.167969 26.996094 L 32.84375 25.125 C 32.503906 24.839844 31.992188 24.898438 31.652344 25.179688 L 27.742188 29.089844 C 27.402344 29.433594 27.402344 29.886719 27.6875 30.28125 L 29.558594 32.605469 C 29.273438 33.117188 29.046875 33.683594 28.875 34.308594 L 25.875 34.648438 C 25.417969 34.703125 25.078125 35.042969 25.078125 35.496094 L 25.078125 41.050781 C 25.078125 41.507812 25.417969 41.902344 25.875 41.902344 L 28.875 42.242188 C 29.046875 42.808594 29.273438 43.375 29.558594 43.945312 L 27.6875 46.269531 C 27.402344 46.609375 27.460938 47.117188 27.742188 47.457031 L 31.652344 51.371094 C 31.992188 51.710938 32.445312 51.710938 32.84375 51.425781 L 35.167969 49.554688 C 35.675781 49.839844 36.242188 50.066406 36.867188 50.234375 L 37.207031 53.238281 C 37.265625 53.695312 37.605469 54.035156 38.058594 54.035156 L 43.609375 54.035156 C 44.0625 54.035156 44.460938 53.695312 44.460938 53.238281 L 44.800781 50.234375 C 45.367188 50.066406 45.933594 49.839844 46.5 49.554688 L 48.824219 51.425781 C 49.164062 51.710938 49.675781 51.652344 50.015625 51.371094 L 53.925781 47.457031 C 54.265625 47.117188 54.265625 46.664062 53.980469 46.269531 L 52.109375 43.945312 C 52.394531 43.433594 52.621094 42.867188 52.792969 42.242188 L 55.792969 41.902344 C 56.25 41.847656 56.589844 41.507812 56.589844 41.050781 L 56.589844 35.496094 C 56.589844 35.042969 56.25 34.648438 55.792969 34.648438 Z M 54.832031 40.257812 L 52.054688 40.542969 C 51.714844 40.597656 51.375 40.824219 51.316406 41.164062 C 51.089844 42.015625 50.75 42.808594 50.355469 43.546875 C 50.183594 43.886719 50.183594 44.226562 50.410156 44.511719 L 52.167969 46.722656 L 49.335938 49.554688 L 47.125 47.796875 C 46.839844 47.570312 46.445312 47.570312 46.160156 47.742188 C 45.425781 48.136719 44.632812 48.476562 43.78125 48.707031 C 43.441406 48.820312 43.15625 49.101562 43.15625 49.441406 L 42.875 52.21875 L 38.90625 52.21875 L 38.566406 49.5 C 38.511719 49.160156 38.285156 48.820312 37.945312 48.761719 C 37.09375 48.535156 36.300781 48.195312 35.5625 47.796875 C 35.222656 47.628906 34.882812 47.628906 34.601562 47.855469 L 32.445312 49.613281 L 29.613281 46.777344 L 31.371094 44.625 C 31.597656 44.339844 31.652344 43.945312 31.425781 43.660156 C 31.03125 42.921875 30.691406 42.128906 30.464844 41.277344 C 30.351562 40.9375 30.066406 40.65625 29.726562 40.65625 L 26.949219 40.371094 L 26.949219 36.402344 L 29.726562 36.121094 C 30.066406 36.0625 30.40625 35.835938 30.464844 35.496094 C 30.691406 34.648438 31.03125 33.851562 31.425781 33.117188 C 31.597656 32.777344 31.597656 32.4375 31.371094 32.152344 L 29.613281 30 L 32.445312 27.164062 L 34.65625 28.921875 C 34.941406 29.148438 35.335938 29.207031 35.621094 28.976562 C 36.355469 28.582031 37.152344 28.242188 38 28.015625 C 38.339844 27.902344 38.625 27.617188 38.625 27.277344 L 38.90625 24.5 L 42.875 24.5 L 43.15625 27.277344 C 43.214844 27.617188 43.441406 27.957031 43.78125 28.015625 C 44.632812 28.242188 45.425781 28.582031 46.160156 28.976562 C 46.445312 29.148438 46.839844 29.148438 47.125 28.921875 L 49.335938 27.164062 L 52.167969 30 L 50.410156 32.152344 C 50.183594 32.4375 50.128906 32.832031 50.355469 33.117188 C 50.75 33.851562 51.089844 34.648438 51.316406 35.496094 C 51.429688 35.835938 51.714844 36.121094 52.054688 36.121094 L 54.832031 36.402344 Z M 54.832031 40.257812 " fill-opacity="1" fill-rule="nonzero"/></g></svg>