<svg xmlns="http://www.w3.org/2000/svg" xmlns:xlink="http://www.w3.org/1999/xlink" width="80" zoomAndPan="magnify" viewBox="0 0 60 60" height="80" preserveAspectRatio="xMidYMid meet" version="1.0"><defs><clipPath id="f0f2d0936a"><path d="M 8 3 L 52 3 L 52 57.640625 L 8 57.640625 Z M 8 3 " clip-rule="nonzero"/></clipPath></defs><g clip-path="url(#f0f2d0936a)"><path fill="#100f0d" d="M 29.164062 45.488281 L 30.988281 45.488281 L 31.8125 49.285156 L 30.082031 53.5 L 28.347656 49.285156 Z M 40.480469 44.144531 C 41.921875 44.109375 43.121094 45.273438 43.148438 46.738281 C 43.148438 46.765625 43.148438 46.792969 43.148438 46.816406 C 43.152344 48.277344 41.988281 49.46875 40.550781 49.480469 C 39.101562 49.484375 37.925781 48.304688 37.921875 46.839844 C 37.921875 46.832031 37.921875 46.828125 37.921875 46.816406 C 37.90625 45.367188 39.050781 44.175781 40.480469 44.144531 Z M 33.132812 43.375 L 34.074219 43.777344 L 32.398438 47.839844 L 31.8125 45.144531 Z M 27.027344 43.375 L 28.3125 45.144531 L 27.730469 47.839844 L 26.058594 43.777344 Z M 30.082031 42.078125 L 32.28125 43.015625 L 31.132812 44.589844 L 29.023438 44.589844 L 27.84375 43.015625 Z M 36.332031 38.28125 L 34.425781 42.945312 L 31.046875 41.519531 Z M 23.796875 38.28125 L 29.109375 41.519531 L 25.734375 42.945312 Z M 22.617188 37.742188 L 29.460938 54.34375 C 29.601562 54.6875 29.988281 54.851562 30.328125 54.710938 C 30.496094 54.640625 30.625 54.507812 30.691406 54.34375 L 37.539062 37.742188 L 40.089844 38.574219 L 40.089844 43.304688 C 38.179688 43.554688 36.824219 45.324219 37.070312 47.261719 C 37.3125 49.199219 39.058594 50.570312 40.976562 50.324219 C 42.890625 50.074219 44.238281 48.304688 43.996094 46.367188 C 43.792969 44.769531 42.554688 43.507812 40.976562 43.304688 L 40.976562 38.863281 L 46.167969 40.554688 C 47.566406 41.011719 48.605469 42.210938 48.875 43.675781 L 50.871094 54.621094 C 51.046875 55.59375 50.40625 56.535156 49.441406 56.710938 C 49.332031 56.730469 49.21875 56.746094 49.109375 56.746094 L 11.019531 56.746094 C 10.039062 56.734375 9.246094 55.917969 9.257812 54.925781 C 9.257812 54.824219 9.265625 54.71875 9.285156 54.617188 L 11.28125 43.667969 C 11.550781 42.210938 12.589844 41.011719 13.980469 40.550781 L 19.179688 38.863281 L 19.179688 41.070312 C 17.839844 41.253906 16.75 42.269531 16.453125 43.605469 L 14.925781 50.433594 C 14.820312 50.894531 14.9375 51.378906 15.25 51.738281 C 15.644531 52.179688 16.148438 52.503906 16.714844 52.671875 C 16.886719 53.179688 17.429688 53.457031 17.9375 53.28125 C 18.4375 53.113281 18.707031 52.558594 18.539062 52.050781 C 18.371094 51.539062 17.824219 51.265625 17.324219 51.4375 C 17.140625 51.496094 16.984375 51.613281 16.863281 51.769531 C 16.503906 51.640625 16.183594 51.417969 15.925781 51.136719 C 15.796875 51.003906 15.742188 50.8125 15.777344 50.632812 L 17.304688 43.804688 C 17.597656 42.515625 18.863281 41.707031 20.136719 42 C 21.023438 42.210938 21.710938 42.910156 21.914062 43.804688 L 23.46875 50.632812 C 23.507812 50.8125 23.449219 51.003906 23.320312 51.136719 C 23.066406 51.417969 22.746094 51.640625 22.382812 51.769531 C 22.0625 51.34375 21.460938 51.257812 21.039062 51.589844 C 20.617188 51.914062 20.535156 52.523438 20.859375 52.953125 C 21.179688 53.378906 21.785156 53.460938 22.207031 53.132812 C 22.359375 53.015625 22.472656 52.855469 22.53125 52.671875 C 23.097656 52.503906 23.609375 52.179688 24 51.738281 C 24.3125 51.378906 24.433594 50.894531 24.320312 50.433594 L 22.792969 43.605469 C 22.496094 42.269531 21.410156 41.253906 20.066406 41.070312 L 20.066406 38.574219 Z M 25.613281 33.613281 C 26.421875 34.167969 27.375 34.464844 28.347656 34.464844 L 31.785156 34.464844 C 32.765625 34.46875 33.726562 34.167969 34.542969 33.613281 L 34.542969 35.378906 C 34.542969 36.265625 34.902344 37.117188 35.542969 37.722656 L 30.082031 41.066406 L 24.617188 37.722656 C 25.253906 37.117188 25.617188 36.265625 25.613281 35.378906 Z M 35.835938 32.511719 C 38.292969 32.929688 40.09375 35.085938 40.09375 37.613281 L 40.09375 37.632812 L 37.59375 36.820312 C 37.351562 36.738281 37.082031 36.773438 36.863281 36.910156 L 36.359375 37.230469 C 35.777344 36.796875 35.425781 36.109375 35.421875 35.378906 L 35.421875 32.875 C 35.5625 32.753906 35.699219 32.632812 35.835938 32.511719 Z M 24.320312 32.511719 C 24.460938 32.632812 24.59375 32.757812 24.734375 32.875 L 24.734375 35.378906 C 24.726562 36.109375 24.382812 36.804688 23.796875 37.230469 L 23.265625 36.910156 C 23.042969 36.773438 22.78125 36.738281 22.535156 36.816406 L 20.066406 37.628906 L 20.066406 37.609375 C 20.066406 35.085938 21.867188 32.929688 24.328125 32.511719 Z M 41.734375 18 C 41.882812 18 42.019531 18.101562 42.058594 18.242188 C 42.277344 19.074219 42.296875 19.941406 42.121094 20.78125 C 42.023438 21.523438 41.617188 22.179688 41.003906 22.589844 L 41.003906 18.523438 C 41.160156 18.304688 41.371094 18.132812 41.617188 18.023438 C 41.65625 18.011719 41.699219 18.003906 41.742188 18 Z M 18.375 17.984375 C 18.433594 17.984375 18.488281 18 18.535156 18.023438 C 18.773438 18.136719 18.976562 18.3125 19.121094 18.523438 L 19.121094 22.589844 C 18.511719 22.175781 18.101562 21.515625 18.007812 20.78125 C 17.832031 19.941406 17.851562 19.074219 18.066406 18.242188 C 18.101562 18.097656 18.226562 17.996094 18.375 17.984375 Z M 21.738281 10.144531 C 26.71875 12.875 32.460938 13.824219 38.035156 12.832031 C 39.003906 12.65625 39.921875 13.304688 40.097656 14.28125 C 40.113281 14.386719 40.125 14.496094 40.125 14.601562 L 40.125 25.113281 C 40.125 26.085938 39.785156 27.019531 39.15625 27.753906 C 37.6875 29.480469 36.097656 31.089844 34.398438 32.582031 C 33.671875 33.21875 32.742188 33.5625 31.785156 33.5625 L 28.347656 33.5625 C 27.390625 33.5625 26.460938 33.21875 25.734375 32.582031 C 24.042969 31.089844 22.464844 29.480469 21.003906 27.753906 C 20.382812 27.019531 20.039062 26.085938 20.039062 25.113281 L 20.039062 14.359375 C 20.082031 14.316406 20.117188 14.265625 20.15625 14.21875 C 21.101562 13.0625 21.652344 11.636719 21.738281 10.144531 Z M 31.261719 3.019531 C 27.632812 2.949219 24.09375 4.121094 21.210938 6.351562 C 19.300781 6.316406 17.691406 7.777344 17.511719 9.703125 C 17.300781 11.089844 17.4375 12.511719 17.921875 13.824219 C 18.109375 14.34375 18.585938 14.6875 19.128906 14.699219 L 19.128906 17.328125 C 19.050781 17.28125 18.976562 17.238281 18.894531 17.207031 C 18.277344 16.929688 17.558594 17.210938 17.285156 17.832031 C 17.257812 17.890625 17.238281 17.953125 17.21875 18.011719 C 16.972656 18.964844 16.953125 19.96875 17.160156 20.933594 C 17.320312 22.109375 18.066406 23.117188 19.128906 23.613281 L 19.128906 25.113281 C 19.132812 26.304688 19.558594 27.449219 20.328125 28.339844 C 21.339844 29.539062 22.410156 30.683594 23.53125 31.769531 C 20.957031 32.515625 19.183594 34.898438 19.183594 37.609375 L 19.183594 37.917969 L 13.722656 39.699219 C 12.007812 40.25 10.730469 41.714844 10.402344 43.507812 L 8.40625 54.449219 C 8.140625 55.917969 9.09375 57.328125 10.546875 57.59375 C 10.699219 57.625 10.859375 57.640625 11.019531 57.640625 L 49.109375 57.640625 C 50.582031 57.65625 51.785156 56.457031 51.796875 54.964844 C 51.796875 54.792969 51.785156 54.621094 51.75 54.449219 L 49.753906 43.507812 C 49.429688 41.714844 48.152344 40.25 46.4375 39.699219 L 40.976562 37.917969 L 40.976562 37.609375 C 40.976562 34.886719 39.183594 32.5 36.601562 31.769531 C 37.730469 30.683594 38.8125 29.539062 39.832031 28.339844 C 40.59375 27.441406 41.007812 26.296875 41.003906 25.113281 L 41.003906 23.613281 C 42.082031 23.125 42.835938 22.113281 43 20.933594 C 43.207031 19.96875 43.1875 18.964844 42.941406 18.011719 C 42.773438 17.351562 42.109375 16.953125 41.453125 17.125 C 41.382812 17.140625 41.304688 17.171875 41.238281 17.207031 C 41.15625 17.238281 41.082031 17.28125 41.003906 17.328125 L 41.003906 16.523438 C 41.75 16.121094 42.277344 15.398438 42.441406 14.558594 C 42.789062 12.59375 42.675781 10.570312 42.113281 8.660156 C 41.804688 7.601562 41.152344 6.683594 40.265625 6.042969 C 37.632812 4.140625 34.5 3.082031 31.261719 3.019531 " fill-opacity="1" fill-rule="nonzero"/></g></svg>