<svg xmlns="http://www.w3.org/2000/svg" xmlns:xlink="http://www.w3.org/1999/xlink" width="40" zoomAndPan="magnify" viewBox="0 0 30 37.92" height="40" preserveAspectRatio="xMidYMid meet" version="1.0"><defs><clipPath id="96debb1ecb"><path d="M 1.601562 1.570312 L 28.546875 1.570312 L 28.546875 28.515625 L 1.601562 28.515625 Z M 1.601562 1.570312 " clip-rule="nonzero"/></clipPath><clipPath id="3fd4589853"><path d="M 10 5 L 23 5 L 23 28.515625 L 10 28.515625 Z M 10 5 " clip-rule="nonzero"/></clipPath><clipPath id="34cdfe8b24"><path d="M 10 4 L 24 4 L 24 28.515625 L 10 28.515625 Z M 10 4 " clip-rule="nonzero"/></clipPath></defs><g clip-path="url(#96debb1ecb)"><path stroke-linecap="butt" transform="matrix(0.0604785, 0, 0, 0.0604785, 0.52977, 0.851992)" fill-opacity="1" fill="#4267b2" fill-rule="nonzero" stroke-linejoin="miter" d="M 462.676244 234.580531 C 462.676244 249.17767 461.255284 263.64563 458.413363 277.919823 C 455.571443 292.258605 451.373151 306.145263 445.753898 319.644387 C 440.199235 333.14351 433.352789 345.932154 425.279151 358.074906 C 417.140923 370.153069 407.904681 381.391574 397.635013 391.725831 C 387.300755 402.060088 376.062251 411.231742 363.919498 419.369969 C 351.841335 427.443608 338.988103 434.290053 325.553568 439.909306 C 312.054445 445.463969 298.167787 449.662261 283.829005 452.504182 C 269.554812 455.346102 255.086852 456.831652 240.489713 456.831652 C 225.892575 456.831652 211.489204 455.346102 197.150422 452.504182 C 182.81164 449.662261 168.924982 445.463969 155.490447 439.909306 C 141.991323 434.290053 129.20268 427.443608 117.059928 419.369969 C 104.917176 411.231742 93.678671 402.060088 83.409003 391.725831 C 73.074745 381.391574 63.838503 370.153069 55.764864 358.074906 C 47.626637 345.932154 40.780191 333.14351 35.225528 319.644387 C 29.606276 306.145263 25.407984 292.258605 22.566063 277.919823 C 19.724142 263.64563 18.303182 249.17767 18.303182 234.580531 C 18.303182 219.983393 19.724142 205.580022 22.566063 191.24124 C 25.407984 176.967047 29.606276 163.0158 35.225528 149.581265 C 40.780191 136.082142 47.626637 123.293498 55.764864 111.150746 C 63.838503 99.007994 73.074745 87.769489 83.409003 77.499821 C 93.678671 67.165564 104.917176 57.929321 117.059928 49.855683 C 129.20268 41.717455 141.991323 34.87101 155.490447 29.316346 C 168.924982 23.761683 182.81164 19.498802 197.150422 16.656881 C 211.489204 13.814961 225.892575 12.394 240.489713 12.394 C 255.086852 12.394 269.554812 13.814961 283.829005 16.656881 C 298.167787 19.498802 312.054445 23.761683 325.553568 29.316346 C 338.988103 34.87101 351.841335 41.717455 363.919498 49.855683 C 376.062251 57.929321 387.300755 67.165564 397.635013 77.499821 C 407.904681 87.769489 417.140923 99.007994 425.279151 111.150746 C 433.352789 123.293498 440.199235 136.082142 445.753898 149.581265 C 451.373151 163.0158 455.571443 176.967047 458.413363 191.24124 C 461.255284 205.580022 462.676244 219.983393 462.676244 234.580531 Z M 462.676244 234.580531 " stroke="#4267b2" stroke-width="1" stroke-opacity="1" stroke-miterlimit="10"/></g><g clip-path="url(#3fd4589853)"><path fill="#ffffff" d="M 18.230469 5.570312 C 17.160156 5.761719 16.792969 5.945312 16.175781 6.296875 C 15.515625 6.671875 15.058594 7.0625 14.742188 7.382812 C 13.714844 8.449219 13.484375 9.441406 13.289062 10.207031 C 13 11.339844 13.03125 12.402344 13.03125 12.402344 L 13.03125 13.230469 L 10.871094 13.230469 L 10.871094 16.988281 L 13.03125 16.988281 L 13.03125 28.328125 C 13.695312 28.429688 14.378906 28.484375 15.074219 28.484375 C 16.101562 28.484375 17.105469 28.371094 18.070312 28.152344 L 18.070312 16.988281 L 21.351562 16.988281 L 21.351562 13.230469 L 18.070312 13.230469 L 18.070312 12.433594 C 18.070312 12.433594 18.070312 12.289062 18.070312 12.269531 C 18.070312 12.253906 18.070312 12.226562 18.070312 12.210938 C 18.070312 12.046875 18.074219 11.804688 18.109375 11.59375 C 18.203125 11.042969 18.390625 10.613281 18.703125 10.230469 C 19.066406 9.796875 19.488281 9.609375 19.960938 9.535156 C 21.128906 9.355469 22.101562 9.761719 22.101562 9.761719 L 22.285156 5.8125 C 22.285156 5.8125 21.550781 5.574219 20.34375 5.492188 C 19.488281 5.429688 18.734375 5.480469 18.230469 5.570312 Z M 18.230469 5.570312 " fill-opacity="1" fill-rule="nonzero"/></g><g clip-path="url(#34cdfe8b24)"><path stroke-linecap="butt" transform="matrix(0.0604785, 0, 0, 0.0604785, 0.52977, 0.851992)" fill="none" stroke-linejoin="miter" d="M 292.677712 78.016534 C 274.980297 81.1814 268.908921 84.217088 258.703842 90.030108 C 247.788282 96.230662 240.231357 102.689573 234.999639 107.98588 C 218.012704 125.618706 214.201946 142.02434 210.972491 154.683805 C 206.192897 173.414646 206.70961 190.982884 206.70961 190.982884 L 206.70961 204.675775 L 170.991833 204.675775 L 170.991833 266.810496 L 206.70961 266.810496 L 206.70961 454.312677 C 217.689758 455.991994 228.992852 456.896241 240.489713 456.896241 C 257.476649 456.896241 274.076049 455.023157 290.029559 451.406167 L 290.029559 266.810496 L 344.28441 266.810496 L 344.28441 204.675775 L 290.029559 204.675775 L 290.029559 191.499596 C 290.029559 191.499596 290.029559 189.1098 290.029559 188.786854 C 290.029559 188.528498 290.029559 188.076374 290.029559 187.818017 C 290.029559 185.105275 290.094148 181.10075 290.67545 177.612938 C 292.225589 168.505874 295.325866 161.401072 300.492994 155.07134 C 306.499781 147.901949 313.475405 144.801671 321.290687 143.574478 C 340.60283 140.603379 356.685518 147.320647 356.685518 147.320647 L 359.721206 82.021059 C 359.721206 82.021059 347.578454 78.081123 327.62042 76.724752 C 313.475405 75.691326 301.009707 76.530984 292.677712 78.016534 Z M 292.677712 78.016534 " stroke="#ffffff" stroke-width="1" stroke-opacity="1" stroke-miterlimit="10"/></g></svg>