<svg xmlns="http://www.w3.org/2000/svg" xmlns:xlink="http://www.w3.org/1999/xlink" width="80" zoomAndPan="magnify" viewBox="0 0 60 60" height="80" preserveAspectRatio="xMidYMid meet" version="1.0"><defs><clipPath id="ff52828b95"><path d="M 3.054688 3.121094 L 57.054688 3.121094 L 57.054688 56.371094 L 3.054688 56.371094 Z M 3.054688 3.121094 " clip-rule="nonzero"/></clipPath></defs><g clip-path="url(#ff52828b95)"><path fill="#000000" d="M 11.835938 40.421875 L 48.289062 40.421875 C 48.660156 40.421875 48.964844 40.71875 48.964844 41.089844 L 48.964844 50.152344 C 48.964844 50.519531 48.660156 50.816406 48.289062 50.816406 L 11.835938 50.816406 C 11.460938 50.816406 11.160156 50.519531 11.160156 50.152344 L 11.160156 41.089844 C 11.160156 40.71875 11.460938 40.421875 11.835938 40.421875 Z M 20.257812 31.667969 L 20.257812 28.554688 C 20.257812 28.183594 20.5625 27.886719 20.933594 27.886719 C 21.308594 27.886719 21.609375 28.183594 21.609375 28.554688 L 21.609375 31.667969 L 26.605469 31.667969 L 26.605469 31.234375 L 22.671875 27.496094 C 22.503906 27.335938 22.425781 27.097656 22.484375 26.859375 L 22.839844 25.402344 L 21.425781 23.847656 C 21.210938 23.625 21.175781 23.277344 21.355469 23.011719 L 22.171875 21.820312 C 21.222656 22.019531 20.398438 22.40625 19.730469 22.972656 C 18.691406 23.851562 18.019531 25.1875 17.855469 26.941406 C 17.832031 27.183594 17.820312 27.433594 17.816406 27.691406 L 17.816406 31.667969 Z M 32.953125 31.667969 L 32.953125 28.554688 C 32.953125 28.183594 33.253906 27.886719 33.625 27.886719 C 34 27.886719 34.300781 28.183594 34.300781 28.554688 L 34.300781 31.667969 L 36.742188 31.667969 L 36.742188 29.511719 C 36.5 29.148438 36.355469 28.710938 36.355469 28.242188 L 36.355469 25.257812 C 35.917969 23.992188 35.128906 23.046875 34.082031 22.449219 L 34.050781 22.429688 C 33.554688 22.152344 32.996094 21.945312 32.390625 21.816406 L 33.207031 23.011719 C 33.386719 23.277344 33.351562 23.625 33.132812 23.847656 L 31.722656 25.402344 L 32.078125 26.859375 C 32.136719 27.097656 32.054688 27.335938 31.890625 27.496094 L 27.957031 31.234375 L 27.957031 31.667969 Z M 8.273438 29.675781 L 13.78125 29.675781 C 13.65625 29.171875 13.394531 28.71875 13.035156 28.363281 L 13.003906 28.332031 C 12.496094 27.84375 11.796875 27.542969 11.027344 27.542969 C 10.246094 27.542969 9.535156 27.855469 9.023438 28.363281 C 8.664062 28.71875 8.398438 29.171875 8.273438 29.675781 Z M 15.179688 29.804688 C 15.054688 28.878906 14.625 28.046875 13.988281 27.417969 C 13.976562 27.40625 13.960938 27.394531 13.945312 27.382812 C 13.34375 26.800781 12.566406 26.398438 11.703125 26.261719 L 11.703125 25.195312 C 11.703125 24.828125 11.402344 24.53125 11.027344 24.53125 C 10.65625 24.53125 10.355469 24.828125 10.355469 25.195312 L 10.355469 26.261719 C 9.46875 26.402344 8.675781 26.820312 8.070312 27.417969 C 7.433594 28.046875 7 28.878906 6.878906 29.804688 C 6.671875 29.886719 6.488281 30.011719 6.332031 30.164062 L 6.332031 30.167969 C 6.027344 30.46875 5.835938 30.882812 5.835938 31.339844 C 5.835938 31.453125 5.847656 31.5625 5.871094 31.667969 L 5.371094 31.667969 C 4.734375 31.667969 4.15625 31.925781 3.738281 32.339844 C 3.320312 32.75 3.058594 33.324219 3.058594 33.953125 C 3.058594 34.582031 3.320312 35.152344 3.738281 35.566406 L 3.738281 35.5625 L 3.742188 35.566406 C 4.160156 35.976562 4.734375 36.234375 5.371094 36.234375 L 5.574219 36.234375 L 5.574219 55.671875 C 5.574219 56.039062 5.875 56.339844 6.25 56.339844 L 53.875 56.339844 C 54.246094 56.339844 54.546875 56.039062 54.546875 55.671875 L 54.546875 36.234375 L 54.75 36.234375 C 55.363281 36.234375 55.925781 35.996094 56.339844 35.605469 C 56.355469 35.59375 56.371094 35.578125 56.382812 35.566406 C 56.800781 35.152344 57.0625 34.582031 57.0625 33.953125 C 57.0625 33.328125 56.800781 32.757812 56.386719 32.34375 L 56.382812 32.339844 C 55.960938 31.925781 55.382812 31.667969 54.75 31.667969 L 47.863281 31.667969 L 47.863281 30.554688 L 51.945312 30.554688 C 52.589844 30.554688 53.175781 30.296875 53.597656 29.875 C 54.023438 29.457031 54.285156 28.878906 54.285156 28.242188 L 54.285156 20.648438 C 54.285156 20.011719 54.023438 19.433594 53.597656 19.015625 L 53.59375 19.015625 C 53.171875 18.59375 52.585938 18.335938 51.945312 18.335938 L 38.695312 18.335938 C 38.074219 18.335938 37.507812 18.578125 37.085938 18.972656 C 37.070312 18.984375 37.054688 19 37.042969 19.015625 C 36.617188 19.433594 36.355469 20.011719 36.355469 20.648438 L 36.355469 22.597656 C 35.898438 22.078125 35.363281 21.644531 34.757812 21.296875 C 34.742188 21.289062 34.726562 21.28125 34.714844 21.273438 C 33.671875 20.691406 32.433594 20.371094 31.058594 20.332031 L 31.046875 20.328125 L 31.011719 20.328125 C 30.835938 20.324219 30.660156 20.324219 30.480469 20.328125 L 30.480469 20.15625 L 35.851562 20.171875 C 35.953125 20.171875 36.054688 20.152344 36.152344 20.109375 C 36.488281 19.957031 36.636719 19.5625 36.484375 19.230469 C 35.640625 17.410156 35.570312 15.1875 35.5 13.035156 C 35.347656 8.160156 35.203125 3.589844 27.332031 3.15625 L 27.316406 3.15625 C 27.292969 3.15625 27.269531 3.15625 27.242188 3.15625 C 19.355469 3.582031 19.210938 8.15625 19.058594 13.035156 C 18.992188 15.1875 18.921875 17.410156 18.078125 19.230469 C 18.039062 19.3125 18.015625 19.40625 18.015625 19.503906 C 18.015625 19.871094 18.320312 20.171875 18.691406 20.171875 L 24.078125 20.15625 L 24.078125 20.328125 L 23.921875 20.328125 C 23.796875 20.324219 23.671875 20.324219 23.546875 20.328125 L 23.515625 20.328125 C 21.664062 20.382812 20.066406 20.933594 18.855469 21.960938 C 17.550781 23.066406 16.714844 24.699219 16.515625 26.820312 C 16.488281 27.097656 16.472656 27.386719 16.46875 27.683594 L 16.46875 31.667969 L 16.1875 31.667969 C 16.210938 31.5625 16.222656 31.453125 16.222656 31.339844 C 16.222656 30.886719 16.03125 30.46875 15.726562 30.167969 L 15.726562 30.164062 C 15.570312 30.011719 15.382812 29.886719 15.179688 29.804688 Z M 14.539062 31.011719 L 14.542969 31.011719 C 14.632812 31.011719 14.714844 31.050781 14.773438 31.105469 L 14.777344 31.109375 C 14.835938 31.167969 14.871094 31.25 14.871094 31.339844 C 14.871094 31.429688 14.835938 31.511719 14.777344 31.570312 L 14.773438 31.574219 C 14.714844 31.632812 14.632812 31.667969 14.542969 31.667969 L 7.515625 31.667969 C 7.425781 31.667969 7.34375 31.632812 7.285156 31.574219 L 7.28125 31.570312 C 7.222656 31.511719 7.1875 31.429688 7.1875 31.339844 C 7.1875 31.25 7.222656 31.167969 7.28125 31.109375 L 7.285156 31.105469 C 7.34375 31.046875 7.425781 31.011719 7.519531 31.011719 Z M 30.542969 18.828125 C 31.046875 18.425781 31.484375 17.941406 31.859375 17.378906 C 32.828125 15.914062 33.34375 13.898438 33.398438 11.34375 C 33.425781 11.042969 33.242188 10.753906 32.945312 10.65625 C 31.902344 10.300781 31.066406 9.910156 30.441406 9.484375 C 29.867188 9.089844 29.476562 8.675781 29.269531 8.238281 C 29.242188 8.175781 29.207031 8.117188 29.160156 8.0625 C 28.914062 7.789062 28.488281 7.757812 28.210938 8 C 27.242188 8.839844 26.222656 9.476562 25.15625 9.914062 C 24.09375 10.347656 22.976562 10.582031 21.8125 10.621094 C 21.445312 10.632812 21.15625 10.933594 21.160156 11.296875 C 21.210938 13.875 21.726562 15.902344 22.703125 17.378906 C 23.078125 17.941406 23.515625 18.425781 24.019531 18.828125 L 19.675781 18.839844 C 20.28125 17.015625 20.34375 15.015625 20.40625 13.070312 C 20.539062 8.832031 20.664062 4.859375 27.28125 4.488281 C 33.898438 4.859375 34.023438 8.832031 34.15625 13.070312 C 34.21875 15.015625 34.28125 17.015625 34.886719 18.839844 Z M 29.132812 19.664062 L 29.132812 20.957031 L 28.886719 21.917969 L 25.675781 21.917969 L 25.429688 20.957031 L 25.429688 19.664062 C 25.957031 19.890625 26.53125 20.054688 27.15625 20.160156 C 27.230469 20.175781 27.3125 20.175781 27.390625 20.164062 C 28.019531 20.058594 28.601562 19.894531 29.132812 19.664062 Z M 29.675781 10.578125 C 30.304688 11.007812 31.09375 11.398438 32.039062 11.75 C 31.945312 13.835938 31.511719 15.472656 30.730469 16.648438 C 29.949219 17.828125 28.800781 18.554688 27.28125 18.828125 C 25.761719 18.554688 24.613281 17.828125 23.832031 16.648438 C 23.070312 15.5 22.636719 13.921875 22.527344 11.910156 C 23.617188 11.808594 24.660156 11.554688 25.667969 11.144531 C 26.648438 10.742188 27.589844 10.195312 28.488281 9.5 C 28.792969 9.886719 29.1875 10.246094 29.675781 10.578125 Z M 37.910156 28.839844 C 37.78125 28.675781 37.707031 28.46875 37.707031 28.242188 L 37.707031 20.648438 C 37.707031 20.378906 37.816406 20.136719 37.996094 19.957031 L 38.023438 19.929688 C 38.199219 19.769531 38.433594 19.667969 38.695312 19.667969 L 51.945312 19.667969 C 52.21875 19.667969 52.464844 19.777344 52.644531 19.953125 L 52.648438 19.957031 C 52.824219 20.132812 52.933594 20.378906 52.933594 20.648438 L 52.933594 28.242188 C 52.933594 28.511719 52.824219 28.757812 52.644531 28.933594 C 52.464844 29.109375 52.214844 29.222656 51.945312 29.222656 L 47.863281 29.222656 L 47.863281 26.394531 C 47.863281 26.027344 47.5625 25.730469 47.191406 25.730469 L 43.449219 25.730469 C 43.078125 25.730469 42.773438 26.027344 42.773438 26.394531 L 42.773438 29.222656 L 38.695312 29.222656 C 38.421875 29.222656 38.175781 29.113281 37.996094 28.9375 L 37.992188 28.933594 L 37.960938 28.898438 C 37.945312 28.878906 37.929688 28.859375 37.910156 28.839844 Z M 38.09375 30.476562 C 38.285156 30.527344 38.488281 30.554688 38.695312 30.554688 L 42.773438 30.554688 L 42.773438 31.667969 L 38.09375 31.667969 Z M 24.222656 21.683594 L 24.484375 22.710938 C 24.492188 22.738281 24.496094 22.761719 24.503906 22.789062 L 26.054688 28.863281 L 23.882812 26.800781 L 24.222656 25.410156 C 24.289062 25.195312 24.242188 24.949219 24.078125 24.769531 L 22.765625 23.328125 L 23.898438 21.671875 Z M 26.015625 23.253906 L 28.546875 23.253906 L 27.28125 28.226562 Z M 30.660156 21.671875 L 31.792969 23.328125 L 30.484375 24.769531 C 30.320312 24.949219 30.273438 25.195312 30.339844 25.410156 L 30.679688 26.800781 L 28.507812 28.863281 L 30.03125 22.882812 C 30.074219 22.800781 30.097656 22.707031 30.101562 22.613281 L 30.335938 21.683594 Z M 54.75 33.003906 C 55.015625 33.003906 55.257812 33.109375 55.429688 33.28125 L 55.433594 33.28125 C 55.605469 33.453125 55.710938 33.691406 55.710938 33.953125 C 55.710938 34.210938 55.601562 34.449219 55.429688 34.621094 L 55.402344 34.648438 C 55.230469 34.804688 55.003906 34.902344 54.75 34.902344 L 5.371094 34.902344 C 5.105469 34.902344 4.863281 34.792969 4.691406 34.621094 C 4.519531 34.449219 4.410156 34.210938 4.410156 33.953125 C 4.410156 33.691406 4.519531 33.453125 4.691406 33.28125 C 4.867188 33.109375 5.105469 33.003906 5.371094 33.003906 Z M 46.515625 27.0625 L 46.515625 31.667969 L 44.125 31.667969 L 44.125 27.0625 Z M 53.199219 36.234375 L 6.921875 36.234375 L 6.921875 55.003906 L 53.199219 55.003906 Z M 47.613281 41.757812 L 12.507812 41.757812 L 12.507812 49.484375 L 47.613281 49.484375 Z M 47.613281 41.757812 " fill-opacity="1" fill-rule="evenodd"/></g></svg>