<svg xmlns="http://www.w3.org/2000/svg" xmlns:xlink="http://www.w3.org/1999/xlink" width="80" zoomAndPan="magnify" viewBox="0 0 60 60" height="80" preserveAspectRatio="xMidYMid meet" version="1.0"><defs><clipPath id="55b9b19e60"><path d="M 2.25 2.25 L 57.75 2.25 L 57.75 57.75 L 2.25 57.75 Z M 2.25 2.25 " clip-rule="nonzero"/></clipPath></defs><path fill="#000000" d="M 23.375 42.40625 L 15.605469 42.40625 C 14.597656 42.40625 13.777344 41.585938 13.777344 40.578125 L 13.777344 38.660156 C 13.777344 37.65625 14.597656 36.832031 15.605469 36.832031 L 23.375 36.832031 C 24.378906 36.832031 25.203125 37.65625 25.203125 38.660156 L 25.203125 40.578125 C 25.203125 41.585938 24.378906 42.40625 23.375 42.40625 Z M 15.605469 37.664062 C 15.0625 37.664062 14.609375 38.105469 14.609375 38.660156 L 14.609375 40.578125 C 14.609375 41.125 15.050781 41.574219 15.605469 41.574219 L 23.375 41.574219 C 23.917969 41.574219 24.367188 41.132812 24.367188 40.578125 L 24.367188 38.660156 C 24.367188 38.117188 23.929688 37.664062 23.375 37.664062 Z M 15.605469 37.664062 " fill-opacity="1" fill-rule="nonzero"/><path fill="#000000" d="M 44.394531 42.40625 L 26.195312 42.40625 C 25.191406 42.40625 24.367188 41.585938 24.367188 40.578125 L 24.367188 38.660156 C 24.367188 37.65625 25.191406 36.832031 26.195312 36.832031 L 34.082031 36.832031 C 34.117188 36.832031 34.152344 36.84375 34.1875 36.84375 L 40.671875 38.578125 C 40.753906 38.601562 40.835938 38.601562 40.902344 38.601562 C 41.273438 38.601562 41.609375 38.382812 41.746094 38.035156 C 41.828125 37.828125 41.839844 37.597656 41.757812 37.386719 C 41.710938 37.261719 41.734375 37.121094 41.804688 37.007812 C 41.886719 36.890625 42.011719 36.832031 42.140625 36.832031 L 44.371094 36.832031 C 45.378906 36.832031 46.199219 37.65625 46.199219 38.660156 L 46.199219 40.578125 C 46.210938 41.585938 45.402344 42.40625 44.394531 42.40625 Z M 26.195312 37.664062 C 25.652344 37.664062 25.203125 38.105469 25.203125 38.660156 L 25.203125 40.578125 C 25.203125 41.125 25.640625 41.574219 26.195312 41.574219 L 44.394531 41.574219 C 44.9375 41.574219 45.390625 41.132812 45.390625 40.578125 L 45.390625 38.660156 C 45.390625 38.117188 44.949219 37.664062 44.394531 37.664062 L 42.660156 37.664062 C 42.671875 37.898438 42.613281 38.140625 42.535156 38.347656 C 42.269531 39.007812 41.632812 39.433594 40.914062 39.433594 C 40.765625 39.433594 40.613281 39.410156 40.464844 39.378906 L 34.023438 37.664062 Z M 26.195312 37.664062 " fill-opacity="1" fill-rule="nonzero"/><path fill="#000000" d="M 43.238281 46.582031 C 43.007812 46.582031 42.824219 46.394531 42.824219 46.164062 L 42.824219 41.980469 C 42.824219 41.746094 43.007812 41.5625 43.238281 41.5625 C 43.46875 41.5625 43.65625 41.746094 43.65625 41.980469 L 43.65625 46.164062 C 43.65625 46.394531 43.46875 46.582031 43.238281 46.582031 Z M 43.238281 46.582031 " fill-opacity="1" fill-rule="nonzero"/><path fill="#000000" d="M 43.238281 45.46875 C 43.136719 45.46875 43.019531 45.425781 42.949219 45.34375 L 39.863281 42.257812 C 39.699219 42.09375 39.699219 41.828125 39.863281 41.667969 C 40.023438 41.503906 40.289062 41.503906 40.453125 41.667969 L 43.539062 44.753906 C 43.703125 44.914062 43.703125 45.179688 43.539062 45.34375 C 43.457031 45.425781 43.355469 45.46875 43.238281 45.46875 Z M 43.238281 45.46875 " fill-opacity="1" fill-rule="nonzero"/><path fill="#000000" d="M 41.261719 46.582031 C 41.15625 46.582031 41.042969 46.535156 40.972656 46.453125 L 36.777344 42.257812 C 36.613281 42.09375 36.613281 41.828125 36.777344 41.667969 C 36.9375 41.503906 37.203125 41.503906 37.367188 41.667969 L 41.5625 45.863281 C 41.722656 46.027344 41.722656 46.292969 41.5625 46.453125 C 41.480469 46.535156 41.367188 46.582031 41.261719 46.582031 Z M 41.261719 46.582031 " fill-opacity="1" fill-rule="nonzero"/><path fill="#000000" d="M 16.808594 46.648438 C 16.574219 46.648438 16.390625 46.464844 16.390625 46.234375 L 16.390625 42.046875 C 16.390625 41.816406 16.574219 41.632812 16.808594 41.632812 C 17.039062 41.632812 17.222656 41.816406 17.222656 42.046875 L 17.222656 46.234375 C 17.222656 46.464844 17.039062 46.648438 16.808594 46.648438 Z M 16.808594 46.648438 " fill-opacity="1" fill-rule="nonzero"/><path fill="#000000" d="M 16.808594 45.539062 C 16.703125 45.539062 16.585938 45.492188 16.519531 45.414062 C 16.355469 45.25 16.355469 44.984375 16.519531 44.824219 L 19.605469 41.734375 C 19.765625 41.574219 20.03125 41.574219 20.195312 41.734375 C 20.355469 41.898438 20.355469 42.164062 20.195312 42.324219 L 17.097656 45.425781 C 17.015625 45.492188 16.910156 45.539062 16.808594 45.539062 Z M 16.808594 45.539062 " fill-opacity="1" fill-rule="nonzero"/><path fill="#000000" d="M 18.785156 46.648438 C 18.679688 46.648438 18.566406 46.605469 18.496094 46.523438 C 18.332031 46.359375 18.332031 46.09375 18.496094 45.933594 L 22.691406 41.734375 C 22.855469 41.574219 23.121094 41.574219 23.28125 41.734375 C 23.445312 41.898438 23.445312 42.164062 23.28125 42.324219 L 19.085938 46.523438 C 18.992188 46.605469 18.886719 46.648438 18.785156 46.648438 Z M 18.785156 46.648438 " fill-opacity="1" fill-rule="nonzero"/><path fill="#000000" d="M 16.808594 37.664062 C 16.773438 37.664062 16.726562 37.65625 16.691406 37.65625 C 15.984375 37.457031 14.65625 36.660156 14.597656 35.085938 C 14.574219 34.195312 14.820312 33.515625 15.363281 32.984375 C 16.390625 31.976562 18.484375 31.574219 21.777344 31.746094 C 22.011719 31.757812 22.183594 31.953125 22.171875 32.183594 C 22.160156 32.417969 21.964844 32.589844 21.734375 32.578125 C 18.726562 32.417969 16.785156 32.75 15.941406 33.574219 C 15.570312 33.941406 15.40625 34.417969 15.429688 35.0625 C 15.476562 36.429688 16.863281 36.84375 16.921875 36.855469 C 17.140625 36.914062 17.269531 37.144531 17.210938 37.367188 C 17.152344 37.550781 16.980469 37.664062 16.808594 37.664062 Z M 16.808594 37.664062 " fill-opacity="1" fill-rule="nonzero"/><path fill="#000000" d="M 23.941406 33.167969 C 23.746094 33.167969 23.546875 33.15625 23.351562 33.15625 C 22.402344 33.109375 21.640625 32.75 21.085938 32.105469 C 19.929688 30.738281 20.171875 28.566406 20.171875 28.472656 C 20.195312 28.242188 20.402344 28.082031 20.632812 28.105469 C 20.867188 28.125 21.027344 28.335938 21.003906 28.566406 C 21.003906 28.589844 20.808594 30.484375 21.722656 31.574219 C 22.125 32.046875 22.667969 32.289062 23.386719 32.324219 C 25.097656 32.417969 26.726562 32.070312 28.449219 31.710938 C 29.15625 31.5625 29.871094 31.410156 30.601562 31.296875 C 34.195312 30.71875 35.597656 31.167969 36.277344 31.386719 C 36.359375 31.410156 36.417969 31.433594 36.464844 31.445312 C 36.683594 31.503906 36.820312 31.734375 36.765625 31.953125 C 36.707031 32.171875 36.476562 32.3125 36.253906 32.253906 C 36.1875 32.230469 36.105469 32.207031 36.023438 32.183594 C 35.410156 31.988281 34.128906 31.574219 30.738281 32.128906 C 30.035156 32.242188 29.316406 32.394531 28.636719 32.53125 C 27.109375 32.84375 25.546875 33.167969 23.941406 33.167969 Z M 23.941406 33.167969 " fill-opacity="1" fill-rule="nonzero"/><path fill="#000000" d="M 33.328125 31.710938 C 33.285156 31.710938 33.226562 31.699219 33.179688 31.6875 C 32.960938 31.605469 32.855469 31.363281 32.949219 31.144531 C 33.074219 30.820312 33.050781 30.449219 32.867188 30.148438 C 32.683594 29.851562 32.382812 29.640625 32.035156 29.605469 L 29.722656 29.304688 C 29.527344 29.28125 29.363281 29.109375 29.363281 28.914062 L 29.144531 23.652344 C 29.121094 23.015625 28.601562 22.519531 27.953125 22.519531 L 27.640625 22.519531 L 26.324219 24.601562 C 26.253906 24.714844 26.136719 24.785156 26.011719 24.796875 C 25.882812 24.808594 25.757812 24.761719 25.675781 24.667969 L 23.757812 22.589844 L 21.246094 23.757812 C 20.644531 24.035156 20.230469 24.589844 20.148438 25.234375 L 19.328125 30.878906 C 19.292969 31.109375 19.085938 31.273438 18.855469 31.238281 C 18.621094 31.203125 18.460938 30.996094 18.496094 30.761719 L 19.316406 25.121094 C 19.445312 24.195312 20.03125 23.398438 20.898438 22.992188 L 23.6875 21.699219 C 23.847656 21.617188 24.046875 21.652344 24.160156 21.789062 L 25.929688 23.675781 L 27.085938 21.847656 C 27.167969 21.734375 27.292969 21.652344 27.445312 21.652344 L 27.988281 21.652344 C 29.074219 21.652344 29.953125 22.507812 30.011719 23.582031 L 30.207031 28.496094 L 32.171875 28.75 C 32.785156 28.832031 33.308594 29.179688 33.617188 29.710938 C 33.929688 30.242188 33.976562 30.867188 33.746094 31.433594 C 33.652344 31.605469 33.492188 31.710938 33.328125 31.710938 Z M 33.328125 31.710938 " fill-opacity="1" fill-rule="nonzero"/><path fill="#000000" d="M 31.328125 31.875 C 31.144531 31.875 30.984375 31.757812 30.925781 31.574219 L 30.902344 31.503906 C 30.648438 30.601562 29.722656 30.046875 28.808594 30.230469 L 25.734375 30.878906 C 24.945312 31.039062 24.125 30.855469 23.5 30.347656 C 22.878906 29.839844 22.507812 29.085938 22.507812 28.277344 L 22.496094 26.4375 C 22.496094 26.207031 22.679688 26.023438 22.914062 26.023438 C 23.144531 26.023438 23.328125 26.207031 23.328125 26.4375 L 23.339844 28.277344 C 23.339844 28.832031 23.59375 29.351562 24.023438 29.699219 C 24.449219 30.046875 25.015625 30.183594 25.558594 30.070312 L 28.636719 29.421875 C 29.976562 29.132812 31.328125 29.953125 31.699219 31.273438 L 31.722656 31.339844 C 31.78125 31.5625 31.664062 31.792969 31.433594 31.851562 C 31.410156 31.875 31.363281 31.875 31.328125 31.875 Z M 31.328125 31.875 " fill-opacity="1" fill-rule="nonzero"/><path fill="#000000" d="M 26.277344 28.960938 C 26.21875 28.960938 26.148438 28.949219 26.09375 28.914062 C 25.882812 28.808594 25.804688 28.554688 25.90625 28.359375 L 27.769531 24.589844 C 27.871094 24.378906 28.125 24.300781 28.324219 24.402344 C 28.53125 24.507812 28.613281 24.761719 28.507812 24.957031 L 26.660156 28.726562 C 26.578125 28.878906 26.4375 28.960938 26.277344 28.960938 Z M 26.277344 28.960938 " fill-opacity="1" fill-rule="nonzero"/><path fill="#000000" d="M 28.136719 30.371094 C 27.988281 30.371094 27.835938 30.277344 27.769531 30.140625 L 26.636719 27.734375 C 26.542969 27.527344 26.625 27.269531 26.832031 27.179688 C 27.039062 27.085938 27.292969 27.167969 27.386719 27.375 L 28.519531 29.78125 C 28.613281 29.988281 28.53125 30.242188 28.324219 30.335938 C 28.253906 30.359375 28.207031 30.371094 28.136719 30.371094 Z M 28.136719 30.371094 " fill-opacity="1" fill-rule="nonzero"/><path fill="#000000" d="M 26.011719 22.378906 C 23.523438 22.378906 21.488281 20.355469 21.488281 17.859375 C 21.488281 15.363281 23.523438 13.351562 26.011719 13.351562 C 28.496094 13.351562 30.53125 15.375 30.53125 17.871094 C 30.53125 20.367188 28.496094 22.378906 26.011719 22.378906 Z M 26.011719 14.183594 C 23.976562 14.183594 22.324219 15.835938 22.324219 17.871094 C 22.324219 19.90625 23.976562 21.558594 26.011719 21.558594 C 28.046875 21.558594 29.699219 19.90625 29.699219 17.871094 C 29.699219 15.835938 28.046875 14.183594 26.011719 14.183594 Z M 26.011719 14.183594 " fill-opacity="1" fill-rule="nonzero"/><path fill="#000000" d="M 40.914062 39.445312 C 40.765625 39.445312 40.613281 39.421875 40.464844 39.390625 L 33.976562 37.65625 C 33.757812 37.597656 33.617188 37.367188 33.6875 37.144531 C 33.746094 36.925781 33.976562 36.789062 34.195312 36.855469 L 40.683594 38.589844 C 40.765625 38.613281 40.84375 38.613281 40.914062 38.613281 C 41.285156 38.613281 41.621094 38.394531 41.757812 38.046875 C 41.839844 37.839844 41.851562 37.609375 41.769531 37.398438 C 41.679688 37.121094 41.433594 36.902344 41.15625 36.820312 L 33.964844 34.808594 C 33.746094 34.753906 33.609375 34.519531 33.675781 34.300781 C 33.734375 34.082031 33.964844 33.941406 34.1875 34.011719 L 41.378906 36.023438 C 41.921875 36.175781 42.359375 36.589844 42.558594 37.121094 C 42.707031 37.527344 42.683594 37.964844 42.535156 38.371094 C 42.257812 39.019531 41.632812 39.445312 40.914062 39.445312 Z M 40.914062 39.445312 " fill-opacity="1" fill-rule="nonzero"/><path fill="#000000" d="M 40.578125 36.636719 C 40.394531 36.636719 40.246094 36.519531 40.1875 36.347656 C 40.117188 36.128906 40.246094 35.898438 40.464844 35.828125 C 41.945312 35.363281 42.800781 34.277344 43.25 33.445312 C 43.804688 32.417969 43.957031 31.421875 43.910156 31.039062 C 43.457031 28.960938 41.355469 28.542969 40.765625 28.542969 C 40.753906 28.542969 40.753906 28.542969 40.742188 28.542969 C 40.523438 28.554688 38.53125 28.671875 37.121094 31.652344 C 36.011719 34.011719 37.699219 34.996094 37.769531 35.03125 C 37.964844 35.144531 38.035156 35.398438 37.933594 35.597656 C 37.816406 35.792969 37.574219 35.875 37.367188 35.757812 C 37.34375 35.746094 34.902344 34.371094 36.359375 31.296875 C 37.945312 27.929688 40.265625 27.722656 40.707031 27.710938 C 40.71875 27.710938 40.730469 27.710938 40.742188 27.710938 C 41.632812 27.710938 44.152344 28.277344 44.707031 30.890625 C 44.707031 30.902344 44.71875 30.914062 44.71875 30.925781 C 44.871094 32.152344 43.886719 35.652344 40.683594 36.636719 C 40.660156 36.636719 40.625 36.636719 40.578125 36.636719 Z M 40.578125 36.636719 " fill-opacity="1" fill-rule="nonzero"/><path fill="#000000" d="M 43.734375 37.46875 C 43.691406 37.46875 43.644531 37.457031 43.609375 37.445312 C 43.390625 37.367188 43.273438 37.132812 43.355469 36.914062 C 43.414062 36.71875 43.515625 36.542969 43.644531 36.371094 C 43.792969 36.175781 43.96875 36.046875 44.128906 35.941406 C 44.210938 35.898438 44.28125 35.851562 44.324219 35.792969 C 44.453125 35.675781 44.558594 35.527344 44.59375 35.351562 C 44.671875 35.007812 44.511719 34.53125 44.222656 34.324219 C 44.035156 34.195312 43.792969 34.09375 43.539062 34.058594 C 43.308594 34.023438 43.15625 33.804688 43.191406 33.585938 C 43.226562 33.351562 43.445312 33.203125 43.667969 33.238281 C 44.046875 33.296875 44.417969 33.445312 44.695312 33.664062 C 45.25 34.070312 45.550781 34.890625 45.378906 35.5625 C 45.296875 35.898438 45.113281 36.210938 44.847656 36.441406 C 44.753906 36.519531 44.660156 36.589844 44.570312 36.648438 C 44.453125 36.730469 44.347656 36.796875 44.28125 36.878906 C 44.199219 36.984375 44.152344 37.097656 44.105469 37.203125 C 44.070312 37.367188 43.910156 37.46875 43.734375 37.46875 Z M 43.734375 37.46875 " fill-opacity="1" fill-rule="nonzero"/><path fill="#000000" d="M 43.5625 32.785156 C 43.25 32.785156 42.9375 32.742188 42.636719 32.660156 C 41.167969 32.21875 40.546875 30.902344 40.382812 30.496094 C 40.300781 30.277344 40.40625 30.035156 40.613281 29.953125 C 40.835938 29.871094 41.078125 29.976562 41.15625 30.183594 C 41.25 30.40625 41.734375 31.515625 42.878906 31.851562 C 43.261719 31.964844 43.667969 31.976562 44.070312 31.894531 C 44.292969 31.851562 44.511719 32 44.558594 32.21875 C 44.601562 32.453125 44.453125 32.660156 44.234375 32.707031 C 44.003906 32.761719 43.78125 32.785156 43.5625 32.785156 Z M 43.5625 32.785156 " fill-opacity="1" fill-rule="nonzero"/><path fill="#000000" d="M 37.898438 30.4375 C 37.699219 30.4375 37.515625 30.289062 37.492188 30.082031 C 37.457031 29.851562 37.609375 29.640625 37.839844 29.605469 C 38.625 29.480469 39.308594 29.445312 39.34375 29.445312 C 39.574219 29.433594 39.769531 29.605469 39.78125 29.839844 C 39.792969 30.070312 39.621094 30.265625 39.390625 30.277344 C 39.378906 30.277344 38.730469 30.3125 37.976562 30.429688 C 37.933594 30.4375 37.921875 30.4375 37.898438 30.4375 Z M 37.898438 30.4375 " fill-opacity="1" fill-rule="nonzero"/><path fill="#000000" d="M 39.320312 32.9375 C 39.226562 32.9375 39.132812 32.902344 39.054688 32.84375 C 38.683594 32.542969 38.429688 32.105469 38.347656 31.640625 C 38.300781 31.410156 38.453125 31.203125 38.683594 31.15625 C 38.914062 31.109375 39.121094 31.261719 39.167969 31.492188 C 39.214844 31.769531 39.378906 32.035156 39.597656 32.207031 C 39.78125 32.359375 39.792969 32.613281 39.65625 32.785156 C 39.550781 32.890625 39.433594 32.9375 39.320312 32.9375 Z M 39.320312 32.9375 " fill-opacity="1" fill-rule="nonzero"/><path fill="#000000" d="M 41.804688 34.175781 C 41.792969 34.175781 41.792969 34.175781 41.78125 34.175781 C 41.34375 34.152344 40.902344 34.023438 40.511719 33.816406 C 40.3125 33.699219 40.234375 33.445312 40.347656 33.25 C 40.464844 33.050781 40.707031 32.972656 40.914062 33.085938 C 41.191406 33.238281 41.503906 33.328125 41.828125 33.339844 C 42.058594 33.351562 42.234375 33.550781 42.222656 33.78125 C 42.210938 34 42.023438 34.175781 41.804688 34.175781 Z M 41.804688 34.175781 " fill-opacity="1" fill-rule="nonzero"/><path fill="#000000" d="M 34.808594 28.636719 C 34.578125 28.636719 34.394531 28.449219 34.394531 28.21875 L 34.394531 26.679688 C 34.394531 26.449219 34.578125 26.265625 34.808594 26.265625 C 35.042969 26.265625 35.226562 26.449219 35.226562 26.679688 L 35.226562 28.21875 C 35.226562 28.449219 35.042969 28.636719 34.808594 28.636719 Z M 34.808594 28.636719 " fill-opacity="1" fill-rule="nonzero"/><path fill="#000000" d="M 35.574219 27.871094 L 34.046875 27.871094 C 33.816406 27.871094 33.628906 27.6875 33.628906 27.457031 C 33.628906 27.226562 33.816406 27.039062 34.046875 27.039062 L 35.585938 27.039062 C 35.816406 27.039062 36 27.226562 36 27.457031 C 35.988281 27.6875 35.804688 27.871094 35.574219 27.871094 Z M 35.574219 27.871094 " fill-opacity="1" fill-rule="nonzero"/><path fill="#000000" d="M 37.398438 27.179688 C 37.167969 27.179688 36.984375 26.992188 36.984375 26.761719 L 36.984375 25.226562 C 36.984375 24.992188 37.167969 24.808594 37.398438 24.808594 C 37.632812 24.808594 37.816406 24.992188 37.816406 25.226562 L 37.816406 26.761719 C 37.816406 26.992188 37.621094 27.179688 37.398438 27.179688 Z M 37.398438 27.179688 " fill-opacity="1" fill-rule="nonzero"/><path fill="#000000" d="M 38.164062 26.414062 L 36.625 26.414062 C 36.394531 26.414062 36.210938 26.230469 36.210938 26 C 36.210938 25.769531 36.394531 25.582031 36.625 25.582031 L 38.164062 25.582031 C 38.394531 25.582031 38.578125 25.769531 38.578125 26 C 38.578125 26.230469 38.394531 26.414062 38.164062 26.414062 Z M 38.164062 26.414062 " fill-opacity="1" fill-rule="nonzero"/><g clip-path="url(#55b9b19e60)"><path fill="#000000" d="M 30 57.75 C 26.253906 57.75 22.625 57.023438 19.199219 55.566406 C 15.894531 54.164062 12.933594 52.164062 10.378906 49.621094 C 7.835938 47.078125 5.835938 44.105469 4.433594 40.800781 C 2.976562 37.375 2.25 33.746094 2.25 30 C 2.25 26.253906 2.976562 22.625 4.433594 19.199219 C 5.835938 15.894531 7.835938 12.921875 10.378906 10.378906 C 12.921875 7.835938 15.894531 5.835938 19.199219 4.433594 C 22.625 2.976562 26.253906 2.25 30 2.25 C 33.746094 2.25 37.375 2.976562 40.800781 4.433594 C 44.105469 5.835938 47.078125 7.835938 49.621094 10.378906 C 52.164062 12.921875 54.164062 15.894531 55.566406 19.199219 C 57.011719 22.625 57.75 26.253906 57.75 30 C 57.75 33.746094 57.023438 37.375 55.566406 40.800781 C 54.164062 44.105469 52.164062 47.066406 49.621094 49.621094 C 47.078125 52.164062 44.105469 54.164062 40.800781 55.566406 C 37.375 57.023438 33.746094 57.75 30 57.75 Z M 30 3.128906 C 15.175781 3.128906 3.128906 15.175781 3.128906 30 C 3.128906 44.824219 15.1875 56.871094 30 56.871094 C 44.824219 56.871094 56.871094 44.8125 56.871094 30 C 56.871094 15.175781 44.824219 3.128906 30 3.128906 Z M 30 3.128906 " fill-opacity="1" fill-rule="nonzero"/></g></svg>