<svg xmlns="http://www.w3.org/2000/svg" xmlns:xlink="http://www.w3.org/1999/xlink" width="40" zoomAndPan="magnify" viewBox="0 0 30 37.92" height="40" preserveAspectRatio="xMidYMid meet" version="1.0"><defs><clipPath id="728811df47"><path d="M 1.964844 1.898438 L 28.160156 1.898438 L 28.160156 28.09375 L 1.964844 28.09375 Z M 1.964844 1.898438 " clip-rule="nonzero"/></clipPath></defs><g clip-path="url(#728811df47)"><path fill="#000000" d="M 28.160156 14.992188 C 28.160156 15.851562 28.074219 16.699219 27.90625 17.542969 C 27.738281 18.382812 27.492188 19.203125 27.160156 19.996094 C 26.832031 20.785156 26.429688 21.539062 25.953125 22.253906 C 25.472656 22.96875 24.929688 23.628906 24.324219 24.234375 C 23.714844 24.839844 23.054688 25.382812 22.335938 25.859375 C 21.621094 26.335938 20.867188 26.738281 20.074219 27.066406 C 19.277344 27.394531 18.460938 27.644531 17.617188 27.808594 C 16.773438 27.976562 15.921875 28.0625 15.0625 28.0625 C 14.203125 28.0625 13.351562 27.976562 12.507812 27.8125 C 11.664062 27.644531 10.84375 27.394531 10.050781 27.066406 C 9.253906 26.738281 8.5 26.335938 7.785156 25.859375 C 7.070312 25.382812 6.410156 24.839844 5.800781 24.234375 C 5.191406 23.628906 4.648438 22.96875 4.171875 22.253906 C 3.695312 21.539062 3.289062 20.785156 2.960938 19.996094 C 2.632812 19.203125 2.382812 18.382812 2.214844 17.542969 C 2.046875 16.699219 1.964844 15.851562 1.964844 14.992188 C 1.964844 14.136719 2.046875 13.285156 2.214844 12.445312 C 2.382812 11.601562 2.632812 10.785156 2.960938 9.992188 C 3.289062 9.199219 3.695312 8.445312 4.171875 7.734375 C 4.648438 7.019531 5.191406 6.359375 5.800781 5.753906 C 6.410156 5.144531 7.070312 4.605469 7.785156 4.128906 C 8.5 3.652344 9.253906 3.246094 10.050781 2.917969 C 10.84375 2.589844 11.664062 2.34375 12.507812 2.175781 C 13.351562 2.007812 14.203125 1.925781 15.0625 1.925781 C 15.921875 1.925781 16.773438 2.007812 17.617188 2.175781 C 18.460938 2.34375 19.277344 2.589844 20.074219 2.917969 C 20.867188 3.246094 21.621094 3.652344 22.335938 4.128906 C 23.050781 4.605469 23.714844 5.144531 24.324219 5.753906 C 24.929688 6.359375 25.472656 7.019531 25.953125 7.734375 C 26.429688 8.445312 26.832031 9.199219 27.160156 9.992188 C 27.492188 10.785156 27.738281 11.601562 27.90625 12.445312 C 28.074219 13.285156 28.160156 14.136719 28.160156 14.992188 Z M 28.160156 14.992188 " fill-opacity="1" fill-rule="nonzero"/></g><path stroke-linecap="round" transform="matrix(0.0781, 0, 0, 0.0778903, -2384.021961, -725.279602)" fill-opacity="1" fill="#ffffff" fill-rule="evenodd" stroke-linejoin="round" d="M 30640.391969 9422.330759 L 30685.706478 9422.029856 L 30795.691695 9582.11069 L 30749.977057 9581.709485 Z M 30640.391969 9422.330759 " stroke="#ffffff" stroke-width="2.14" stroke-opacity="1" stroke-miterlimit="1.5"/><path stroke-linecap="round" transform="matrix(0.0781, 0, 0, 0.0778903, -2384.021961, -725.279602)" fill-opacity="1" fill="#ffffff" fill-rule="evenodd" stroke-linejoin="round" d="M 30776.785641 9422.029856 L 30790.890157 9422.029856 L 30653.996325 9582.11069 L 30640.391969 9582.11069 Z M 30776.785641 9422.029856 " stroke="#ffffff" stroke-width="2.14" stroke-opacity="1" stroke-miterlimit="1.5"/><path fill="#000000" d="M 10.453125 9.574219 L 12.09375 9.582031 L 19.675781 20.414062 L 18.035156 20.410156 Z M 10.453125 9.574219 " fill-opacity="1" fill-rule="evenodd"/><path fill="#000000" d="M 10.453125 9.574219 L 12.09375 9.582031 L 19.675781 20.414062 L 18.035156 20.410156 Z M 10.578125 9.640625 C 10.578125 9.640625 18.066406 20.34375 18.066406 20.34375 C 18.066406 20.34375 19.550781 20.347656 19.550781 20.347656 L 12.054688 9.648438 Z M 10.578125 9.640625 " fill-opacity="1" fill-rule="evenodd"/></svg>